<svg width="106" height="80" viewBox="0 0 106 80" fill="none" xmlns="http://www.w3.org/2000/svg">
<path d="M3.366 51C3.146 51 2.959 50.923 2.805 50.769C2.651 50.615 2.574 50.428 2.574 50.208V28.725C2.574 28.483 2.64 28.285 2.772 28.131C2.926 27.977 3.124 27.9 3.366 27.9H17.886C18.128 27.9 18.326 27.977 18.48 28.131C18.634 28.285 18.711 28.483 18.711 28.725V30.903C18.711 31.145 18.634 31.343 18.48 31.497C18.326 31.629 18.128 31.695 17.886 31.695H7.029V37.536H17.16C17.402 37.536 17.6 37.613 17.754 37.767C17.908 37.899 17.985 38.086 17.985 38.328V40.374C17.985 40.616 17.908 40.814 17.754 40.968C17.6 41.1 17.402 41.166 17.16 41.166H7.029V47.205H18.15C18.392 47.205 18.59 47.282 18.744 47.436C18.898 47.59 18.975 47.788 18.975 48.03V50.208C18.975 50.45 18.898 50.648 18.744 50.802C18.59 50.934 18.392 51 18.15 51H3.366Z" fill="#FF7A50"/>
<path d="M25.5443 51C25.3243 51 25.1373 50.923 24.9833 50.769C24.8293 50.615 24.7523 50.428 24.7523 50.208V28.725C24.7523 28.483 24.8183 28.285 24.9503 28.131C25.1043 27.977 25.3023 27.9 25.5443 27.9H39.8663C40.1083 27.9 40.3063 27.977 40.4603 28.131C40.6143 28.285 40.6913 28.483 40.6913 28.725V31.035C40.6913 31.277 40.6143 31.475 40.4603 31.629C40.3063 31.761 40.1083 31.827 39.8663 31.827H29.2733V38.097H39.2063C39.4483 38.097 39.6463 38.174 39.8003 38.328C39.9543 38.482 40.0313 38.68 40.0313 38.922V41.232C40.0313 41.474 39.9543 41.672 39.8003 41.826C39.6463 41.958 39.4483 42.024 39.2063 42.024H29.2733V50.208C29.2733 50.45 29.1963 50.648 29.0423 50.802C28.8883 50.934 28.6903 51 28.4483 51H25.5443ZM53.0934 51.33C50.5194 51.33 48.5284 50.67 47.1204 49.35C45.7124 48.008 44.9534 46.182 44.8434 43.872L44.8104 42.42L44.8434 40.968C44.9534 38.68 45.7234 36.865 47.1534 35.523C48.5834 34.181 50.5634 33.51 53.0934 33.51C55.6234 33.51 57.6034 34.181 59.0334 35.523C60.4634 36.865 61.2334 38.68 61.3434 40.968C61.3654 41.232 61.3764 41.716 61.3764 42.42C61.3764 43.124 61.3654 43.608 61.3434 43.872C61.2334 46.182 60.4744 48.008 59.0664 49.35C57.6584 50.67 55.6674 51.33 53.0934 51.33ZM53.0934 48.063C54.2594 48.063 55.1614 47.7 55.7994 46.974C56.4374 46.226 56.7894 45.137 56.8554 43.707C56.8774 43.487 56.8884 43.058 56.8884 42.42C56.8884 41.782 56.8774 41.353 56.8554 41.133C56.7894 39.703 56.4374 38.625 55.7994 37.899C55.1614 37.151 54.2594 36.777 53.0934 36.777C51.9274 36.777 51.0254 37.151 50.3874 37.899C49.7494 38.625 49.3974 39.703 49.3314 41.133L49.2984 42.42L49.3314 43.707C49.3974 45.137 49.7494 46.226 50.3874 46.974C51.0254 47.7 51.9274 48.063 53.0934 48.063ZM74.2727 51.33C71.6987 51.33 69.7077 50.67 68.2997 49.35C66.8917 48.008 66.1327 46.182 66.0227 43.872L65.9897 42.42L66.0227 40.968C66.1327 38.68 66.9027 36.865 68.3327 35.523C69.7627 34.181 71.7427 33.51 74.2727 33.51C76.8027 33.51 78.7827 34.181 80.2127 35.523C81.6427 36.865 82.4127 38.68 82.5227 40.968C82.5447 41.232 82.5557 41.716 82.5557 42.42C82.5557 43.124 82.5447 43.608 82.5227 43.872C82.4127 46.182 81.6537 48.008 80.2457 49.35C78.8377 50.67 76.8467 51.33 74.2727 51.33ZM74.2727 48.063C75.4387 48.063 76.3407 47.7 76.9787 46.974C77.6167 46.226 77.9687 45.137 78.0347 43.707C78.0567 43.487 78.0677 43.058 78.0677 42.42C78.0677 41.782 78.0567 41.353 78.0347 41.133C77.9687 39.703 77.6167 38.625 76.9787 37.899C76.3407 37.151 75.4387 36.777 74.2727 36.777C73.1067 36.777 72.2047 37.151 71.5667 37.899C70.9287 38.625 70.5767 39.703 70.5107 41.133L70.4777 42.42L70.5107 43.707C70.5767 45.137 70.9287 46.226 71.5667 46.974C72.2047 47.7 73.1067 48.063 74.2727 48.063ZM94.231 51.33C92.009 51.33 90.304 50.615 89.116 49.185C87.928 47.755 87.29 45.852 87.202 43.476L87.169 42.387L87.202 41.331C87.268 39.021 87.895 37.14 89.083 35.688C90.293 34.236 92.009 33.51 94.231 33.51C96.365 33.51 98.059 34.236 99.313 35.688V28.362C99.313 28.12 99.39 27.933 99.544 27.801C99.698 27.647 99.885 27.57 100.105 27.57H102.91C103.152 27.57 103.339 27.647 103.471 27.801C103.625 27.933 103.702 28.12 103.702 28.362V50.208C103.702 50.428 103.625 50.615 103.471 50.769C103.339 50.923 103.152 51 102.91 51H100.303C100.083 51 99.896 50.923 99.742 50.769C99.588 50.615 99.511 50.428 99.511 50.208V48.987C98.257 50.549 96.497 51.33 94.231 51.33ZM95.452 47.799C96.728 47.799 97.674 47.392 98.29 46.578C98.906 45.764 99.247 44.763 99.313 43.575C99.335 43.311 99.346 42.882 99.346 42.288C99.346 41.716 99.335 41.298 99.313 41.034C99.269 39.934 98.917 38.999 98.257 38.229C97.619 37.437 96.684 37.041 95.452 37.041C93.076 37.041 91.811 38.504 91.657 41.43L91.624 42.42L91.657 43.41C91.811 46.336 93.076 47.799 95.452 47.799Z" fill="#37383D"/>
</svg>
